<svg version="1.1" xmlns="http://www.w3.org/2000/svg" xmlns:xlink="http://www.w3.org/1999/xlink" x="0px" y="0px" viewBox="0 0 64 64" xml:space="preserve" width="128" height="128"><title>bulb 63</title><rect data-element="frame" x="0" y="0" width="64" height="64" rx="41" ry="41" stroke="none" fill="#ffffff"/><g class="nc-icon-wrapper" transform="translate(11.52 11.52) scale(0.64)" stroke-linecap="round" stroke-linejoin="round" stroke-width="4" fill="#0c96c4" stroke="#0c96c4"><line data-color="color-2" fill="none" stroke-miterlimit="10" x1="2" y1="32" x2="8" y2="32"/> <line data-color="color-2" fill="none" stroke-miterlimit="10" x1="10.787" y1="10.787" x2="15.029" y2="15.029"/> <line data-color="color-2" fill="none" stroke-miterlimit="10" x1="32" y1="2" x2="32" y2="8"/> <line data-color="color-2" fill="none" stroke-miterlimit="10" x1="53.213" y1="10.787" x2="48.971" y2="15.029"/> <line data-color="color-2" fill="none" stroke-miterlimit="10" x1="62" y1="32" x2="56" y2="32"/> <line fill="none" stroke="#0c96c4" stroke-miterlimit="10" x1="25" y1="62" x2="39" y2="62"/> <path fill="none" stroke="#0c96c4" stroke-miterlimit="10" d="M49,32 c0-9.389-7.611-17-17-17s-17,7.611-17,17c0,6.891,4.107,12.81,10,15.48V56h14v-8.52C44.893,44.81,49,38.891,49,32z"/></g></svg>