<svg version="1.1" xmlns="http://www.w3.org/2000/svg" xmlns:xlink="http://www.w3.org/1999/xlink" x="0px" y="0px" viewBox="0 0 32 32" xml:space="preserve" width="32" height="32"><title>download 3</title><g class="nc-icon-wrapper" fill="#0c96c4"><path fill="#0c96c4" d="M29,0H3C2.448,0,2,0.448,2,1v30c0,0.552,0.448,1,1,1h26c0.552,0,1-0.448,1-1V1C30,0.448,29.552,0,29,0z M16.707,23.707C16.512,23.902,16.256,24,16,24s-0.512-0.098-0.707-0.293L9.586,18L11,16.586l4,4V9h2v11.586l4-4L22.414,18 L16.707,23.707z"/></g></svg>