<svg xmlns="http://www.w3.org/2000/svg" viewBox="0 0 64 64" width="128" height="128"><title>shell</title><rect data-element="frame" x="0" y="0" width="64" height="64" rx="41" ry="41" stroke="none" fill="#ffffff"/><g class="nc-icon-wrapper" transform="translate(11.52 11.52) scale(0.64)" stroke-linecap="round" stroke-linejoin="round" stroke-width="4" fill="#4dcacc" stroke="#4dcacc"><path d="M24.61,56H17.531a4,4,0,0,1-3.969-3.5l-1.4-11.238" fill="none" stroke-miterlimit="10" data-cap="butt" data-color="color-2"/> <path d="M39.39,56h7.079a4,4,0,0,0,3.969-3.5l1.405-11.238" fill="none" stroke-miterlimit="10" data-cap="butt" data-color="color-2"/> <path d="M62,25.778a9.171,9.171,0,0,0-9-9.334,9.171,9.171,0,0,0-9-9.333,8.655,8.655,0,0,0-4.411,1.245,8.789,8.789,0,0,0-15.178,0A8.655,8.655,0,0,0,20,7.111a9.171,9.171,0,0,0-9,9.333,9.171,9.171,0,0,0-9,9.334,9.456,9.456,0,0,0,2.319,6.2l20.611,24.4a8.713,8.713,0,0,0,14.14,0l20.611-24.4A9.456,9.456,0,0,0,62,25.778Z" fill="none" stroke="#0c96c4" stroke-miterlimit="10"/> <line x1="24.411" y1="8.356" x2="28.914" y2="39" fill="none" stroke="#0c96c4" stroke-miterlimit="10" data-cap="butt"/> <line x1="11" y1="16.444" x2="22.839" y2="41" fill="none" stroke="#0c96c4" stroke-miterlimit="10" data-cap="butt"/> <line x1="39.422" y1="8.356" x2="34.919" y2="39" fill="none" stroke="#0c96c4" stroke-miterlimit="10" data-cap="butt"/> <line x1="52.833" y1="16.444" x2="40.994" y2="41" fill="none" stroke="#0c96c4" stroke-miterlimit="10" data-cap="butt"/></g></svg>