<svg xmlns="http://www.w3.org/2000/svg" viewBox="0 0 64 64" width="64" height="64"><title>water surface</title><rect data-element="frame" x="0" y="0" width="64" height="64" rx="41" ry="41" stroke="none" fill="#103354"/><g class="nc-icon-wrapper" transform="translate(11.52 11.52) scale(0.64)" stroke-linecap="round" stroke-linejoin="round" stroke-width="4" fill="#ffffff" stroke="#ffffff"><path d="M2,50a13.865,13.865,0,0,0,10.227-4.5,13.872,13.872,0,0,0,20.455,0,13.893,13.893,0,0,0,19.773.71A13.8,13.8,0,0,0,62,50" fill="none" stroke="#ffffff" stroke-miterlimit="10"/> <path d="M2,35a13.865,13.865,0,0,0,10.227-4.5,13.872,13.872,0,0,0,20.455,0,13.893,13.893,0,0,0,19.773.71A13.8,13.8,0,0,0,62,35" fill="none" stroke-miterlimit="10" data-color="color-2"/> <path d="M2,20a13.865,13.865,0,0,0,10.227-4.5,13.872,13.872,0,0,0,20.455,0,13.893,13.893,0,0,0,19.773.71A13.8,13.8,0,0,0,62,20" fill="none" stroke="#ffffff" stroke-miterlimit="10"/></g></svg>