
<svg xmlns="http://www.w3.org/2000/svg" viewBox="0 0 48 48" width="48" height="48">




















































<title>podcast mic</title>




















































<g class="nc-icon-wrapper" stroke-linecap="round" stroke-linejoin="round" stroke-width="3" transform="translate(0.5 0.5)" fill="#f2bf24" stroke="#f2bf24">




















































<rect x="16" y="2" width="16" height="36" rx="4" fill="none" stroke="#f2bf24" stroke-miterlimit="10"></rect>




















































<path d="M6.1,29.9a14,14,0,0,1,0-19.8" fill="none" stroke-miterlimit="10" data-color="color-2"></path>




















































<path d="M10.343,14.343a8,8,0,0,0,0,11.314" fill="none" stroke-miterlimit="10" data-color="color-2"></path>




















































<path d="M41.9,29.9a14,14,0,0,0,0-19.8" fill="none" stroke-miterlimit="10" data-color="color-2"></path>




















































<path d="M37.657,14.343a8,8,0,0,1,0,11.314" fill="none" stroke-miterlimit="10" data-color="color-2"></path>




















































<line x1="16" y1="12" x2="20" y2="12" fill="none" stroke="#f2bf24" stroke-miterlimit="10"></line>




















































<line x1="28" y1="12" x2="32" y2="12" fill="none" stroke="#f2bf24" stroke-miterlimit="10"></line>




















































<line x1="16" y1="28" x2="20" y2="28" fill="none" stroke="#f2bf24" stroke-miterlimit="10"></line>




















































<line x1="28" y1="28" x2="32" y2="28" fill="none" stroke="#f2bf24" stroke-miterlimit="10"></line>




















































<line x1="16" y1="20" x2="20" y2="20" fill="none" stroke="#f2bf24" stroke-miterlimit="10"></line>




















































<line x1="28" y1="20" x2="32" y2="20" fill="none" stroke="#f2bf24" stroke-miterlimit="10"></line>




















































<line x1="27" y1="38" x2="27" y2="46" fill="none" stroke="#f2bf24" stroke-miterlimit="10"></line>




















































<line x1="21" y1="38" x2="21" y2="46" fill="none" stroke="#f2bf24" stroke-miterlimit="10"></line></g></svg>